<svg xmlns="http://www.w3.org/2000/svg" version="1.1" xmlns:xlink="http://www.w3.org/1999/xlink" xmlns:svgjs="http://svgjs.dev/svgjs" viewBox="0 0 1422 800"><defs><linearGradient x1="50%" y1="0%" x2="50%" y2="100%" id="ssscribble-grad"><stop stop-color="hsl(37, 99%, 67%)" stop-opacity="1" offset="0%"></stop><stop stop-color="hsl(289, 73%, 52%)" stop-opacity="1" offset="100%"></stop></linearGradient></defs><g fill="none" stroke-width="1.5" stroke="url(#ssscribble-grad)" stroke-linecap="round"><path d="M1472.46 433.7C1463.18 458.28 1443.4 481.72 1417.77 503.96 1392.49 526.13 1371.71 547 1358.93 566.43 1356.61 585.7 1362.83 603.43 1374.69 619.58 1395.97 642.88 1401.92 683.54 1376.85 702.73 1350.81 716.89 1320.43 731.87 1288.85 748.32 1259.05 767.45 1232.89 788.9 1211.62 812.94 1196.32 839.75 1185.94 868.67 1179.27 898.96 1176.22 929.63 1173.92 959.29 1170.8 986.28 1163.71 1018.46 1128.6 1044.2 1100.12 1038.34 1077.66 1031.09 1052.81 1023.22 1026.36 1017.39 998.68 1017.28 970.3 1023.27 941.8 1036.14 912.93 1056.12 884.41 1080.43 856.52 1106.07 828.6 1130.21 801.42 1148.53 775.08 1157.99 748.76 1158.18 723.27 1148.12 698.69 1129.64 674.11 1107.69 651.04 1085.57 629.48 1067.27 607.95 1056.62 587.97 1053.89 569.53 1058.56 551.08 1070.04 534.07 1084 518.35 1096.98 502.26 1107.21 486.98 1110.66 472.08 1106 455.94 1093.95 439.25 1074.26 421.36 1048.85 401.09 1020.41 378.7 990.84 353.82 962.41 326.27 937.27 296.47 916.14 265 899.41 232.96 887.74 201.52 879.63 172.35 873.91 120.56 861.46 117.33 817.1 124.73 789.35 122.46 767.92 113.25 744.32 96.37 719.18 72.1 692.91 43.63 665.83 14.71 638.44 -11.01 610.62 -28.96 582.91 -36.13 555.6 -32.83 528.2 -19.28 501.36 1.12 475.22 21.89 449.07 39.18 423.65 48.46 399.08 46.04 374.5 33.93 351.35 15.56 329.62 -5.7 307.89 -23.09 287.57 -32.23 268.61 -31.74 249.57 -19.77 231.75 1.8 214.98 29.09 197.79 58.73 181.22 86.56 164.9 108.75 147.45 123.92 129.52 131.75 110.59 132.06 89.69 128.05 67.1 122.5 42.54 116.69 15.8 114.61 -12.78 118.01 -42.78 126.74 -73.48 142.2 -103.98 163.62 -132.99 189.55 -159.48 219.06 -182.05 250.46 -199.4 282.5 -211.69 313.92 -217.93 343.82 -218.38 371.7 -215.54 397.28 -209.78 420.7 -203.26 441.77 -199.78 461.25 -200.12 479.73 -206.07 496.72 -219.42 513.59 -238.88 530.83 -262.97 547.46 -289.83 565.04 -315.52 583.81 -336.49 602.44 -350.64 622.48 -355.14 644.01 -349.36 665.53 -335.93 688.57 -316.3 713.14 -294.35 737.72 -275.86 763.25 -263.31 789.61 -258.64 815.95 -263.23 843.07 -274.32 870.8 -288.98 898.38 -305.13 926.33 -317.71 954.29 -323.82 981.64 -322.82 1008.42 -312.82 1034.01 -294.69 1058.13 -270.84 1080.17 -242.94 1099.46 -213.78 1116.4 -186.25 1129.99 -161.92 1139.99 -142.02 1156.34 -116.52 1188.94 -103.61 1216.84 -92.84 1242.46 -81.72 1271.9 -66.58 1303.3 -47.84 1334.44 -26.41 1362.27 -2.21 1383.88 23.97 1397.97 51.6 1402.83 80.2 1398.66 109.16 1388.84 138.48 1375.2 167.56 1361.78 196.13 1354.07 224.57 1353.84 252.36 1362.83 279.45 1381.46 306.36 1406.07 332.67 1432.21 358.36 1455.44 383.99 1470.04 409.12 1472.46 433.7Q1472.46 433.7 1472.46 433.7" opacity="0.64"></path><path d="M1383.46 361.52C1375.92 383.02 1359.87 403.64 1338.29 423.41 1315.41 443.24 1294.02 462.33 1277.09 480.8 1267.34 499.53 1264.58 517.89 1268.06 536.09 1277.23 554.9 1288.47 573.93 1299.03 593.47 1307.66 614 1310.99 635.42 1307.82 657.9 1298.61 681.57 1282.72 706.37 1261.36 732.17 1236.33 758.64 1208.92 785.51 1180.93 812.16 1153.96 837.97 1129.03 862.23 1106.9 884 1080.56 910.48 1046.23 936.83 1034.58 936.57 1012.39 925.37 963.07 941.18 939.63 967.26 922.82 989.51 904.65 1012.63 885.42 1034.22 865.85 1052.59 845.52 1064.97 824.68 1069.71 803.74 1067.3 782.46 1057.15 760.96 1040.65 739.45 1021.49 718.23 1001.68 697.28 984.01 676.24 971.46 655.29 964.49 634.3 963.39 612.98 968.59 591.31 977.58 569.11 988.3 546.27 999.86 522.6 1008.81 498 1013.41 472.67 1013.53 446.39 1007.39 419.35 995.17 392.12 978.11 364.77 956.52 337.93 931.89 312.33 905.88 288.54 879.54 267.5 854.12 249.49 830.77 235.42 809.84 225.85 791.57 221.31 755.42 224.65 718.47 212.21 705.63 196.19 696.39 175.34 685.46 150.94 672.81 124.62 659.54 99.38 644.6 78.07 628.18 62.47 611.23 54.96 593.05 56.41 573.88 65.03 554.43 80.1 534.24 98.72 513.5 116.05 492.69 129.92 471.48 137.46 449.97 135.99 428.47 127.03 407.18 112.63 386.1 94.53 364.95 77.55 343.87 64.98 322.77 58.2 301.38 59.95 279.73 70.3 257.66 87.51 235.07 110.47 211.81 136.53 187.81 162.64 163.19 186.85 137.79 207.3 111.72 222.3 85.39 232.14 58.84 237.34 32.53 237.87 7.02 236.19 -17.25 233.96 -39.52 231.27 -67.93 245.29 -102.34 264.75 -107.34 282.29 -107.32 303.13 -104.92 326.46 -101.3 351.59 -99.06 377.95 -98.31 404.8 -100.43 431.99 -107.39 458.88 -118.77 485.12 -134.65 510.95 -155.01 535.95 -177.96 560.1 -201.66 583.75 -224.52 606.74 -243.77 629.17 -257.27 651.31 -264.47 673.15 -263.84 694.8 -255.55 716.36 -242.13 737.89 -224.5 759.4 -205.34 780.9 -188.84 801.87 -176.5 822.19 -169.84 842.43 -170.32 861.86 -176.37 880.28 -186.45 906.83 -206.16 952.08 -229.65 970.12 -223.95 981.15 -212.27 990.61 -194.76 998.72 -172.78 1007.18 -148.24 1015.1 -122.32 1023.11 -96.62 1032.93 -72.72 1044.09 -51.27 1057.33 -32.79 1073.76 -18.03 1093.04 -6.3 1115.29 2.95 1140.39 9.36 1167.47 14.63 1195.44 19.59 1223.07 23.71 1248.69 28.85 1270.55 35.52 1293.24 47.6 1298.31 84.28 1284.62 108.47 1274.32 126.2 1265.36 145.36 1260.28 165.57 1262.07 186.38 1270.59 207.86 1285.67 229.69 1306.53 251.78 1329.85 273.96 1352.2 296.02 1370.85 318.14 1381.99 340.01 1383.46 361.52Q1383.46 361.52 1383.46 361.52" opacity="0.91"></path><path d="M1294.46 369.93C1288.52 388.36 1275.96 407.26 1258.57 426.56 1239.1 445.9 1219.16 465.71 1200.89 485.96 1186.6 506.3 1176.78 527.14 1171.8 548.43 1172.27 569.82 1176.49 591.63 1183.14 613.73 1191.79 635.74 1199.76 657.81 1205.58 679.66 1209.12 700.95 1208.42 721.54 1203.11 740.98 1193.85 759.13 1180.13 775.52 1162.67 789.67 1142.46 801.87 1120.03 811.4 1096.36 818.06 1072.24 822.77 1048.34 824.85 1025.25 824.6 1003.37 823.63 982.92 821.53 963.96 819.1 938.71 818.49 895.8 832.51 876.54 850 864.54 866.27 852.29 884.83 839.54 904.67 827.12 925 813.9 943.91 799.77 959.84 778.18 975.63 729.64 970.95 702.56 951.65 684.12 935.28 664.99 918.03 645.25 901.71 625.53 888.51 605.24 878.8 584.52 873.16 563.9 872.47 542.97 875.43 521.95 881.13 501.26 889.48 480.77 898.11 460.82 905.69 432.57 913.74 384.67 906.38 366.83 889.67 357.37 874.08 350.39 855.45 345.9 834.62 342.61 812.49 341.2 789.58 341.17 766.61 340.68 744.17 340.1 722.59 338.54 702.17 334.25 683.21 327.44 665.6 317.5 649.23 303.62 634.36 286.46 620.41 266.48 607.11 244.22 594.86 221.23 582.8 199.06 570.63 170.8 553 146.9 515.07 154.59 494.09 165.74 479.85 180.26 464.59 196.09 448.27 209.83 431.97 220.52 414.6 226.46 396.17 225.76 377.74 219.56 358.68 209 339.08 194.71 319.49 179.89 299.37 166.74 278.85 156.12 258.39 150.69 237.6 151.31 216.66 157.43 195.93 169.58 175.26 186.7 154.92 207.08 135.14 229.71 116.06 252.95 98.03 275.15 81.07 295.45 65.64 313.04 52.1 349.19 17.63 364.88 8.62 374.66 4.07 383.31 -2.63 394.25 -12.04 407.26 -24.42 421.59 -40.18 437.61 -58.4 454.94 -78.36 473.14 -99.46 492.2 -120.09 511.76 -138.84 531.75 -154.94 551.91 -166.7 571.98 -173.13 592.21 -174.6 612.16 -170.33 631.68 -160.77 651.24 -148.1 670.28 -132.72 688.72 -116.35 707.15 -101.94 724.53 -90.27 740.88 -82.41 764.98 -80.49 808.91 -100.32 829.36 -115.3 850.08 -128.02 892.84 -130.53 916.33 -117.65 933.59 -103.91 952.03 -86.56 971.79 -66.5 992.94 -44.88 1015.33 -22.25 1038.72 0.47 1062.67 22.49 1086.76 43.41 1110.25 62.86 1132.48 80.37 1152.63 96.14 1169.77 110.32 1193.8 142.64 1181.45 183.54 1170.78 198 1167.1 213.31 1188.19 249.63 1213.04 270.71 1233.3 285.22 1253.54 300.79 1271.48 317.36 1285.69 333.95 1293.76 351.48 1294.46 369.92Q1294.46 369.93 1294.46 369.93" opacity="0.40"></path><path d="M1205.46 441.32C1192.22 472.04 1163.33 503.56 1128.93 535.05 1100.41 566.02 1082.38 595.89 1076.41 623.17 1087.8 658.76 1098.46 699.5 1075.05 704.66 1047.92 707.92 1013.64 711.81 975.9 719.73 936.53 736.65 897.61 761.11 860.56 792.01 824.7 827.04 790.71 859.22 758.3 881.59 726.49 891.6 695.26 884.76 664.54 862.65 633.82 835.18 605.06 808.06 578.94 788.2 553.41 781.29 531.51 784.15 514.13 792.73 492.11 809.06 463.78 792.73 445.72 754.52 424.69 720.95 396.62 683.66 361.91 645.55 322.81 607.7 285.25 571.33 256.36 536.96 239.81 504.09 240.34 472.52 257.01 441.74 279.56 411.52 302.22 381.1 315.46 350.38 310.61 319.66 293.19 290.09 271.19 262.37 250.45 235.21 242.83 210.91 251.74 190.53 274.27 171.67 308.58 157.44 347.86 147.94 385.85 138.71 419.11 131.89 445.86 125.2 464.69 113.23 478.89 96.64 491.24 73.64 500.64 42.86 512.39 7.76 527.82 -27.31 543.75 -58.41 564.08 -78.75 588.37 -83.7 613.12 -75.71 641.1 -54.82 671.82 -27.35 702.54 -5.24 734.54 7.83 767.73 9.68 801.38 -0.83 836.93 -15.52 874.24 -28.04 912.05 -36.41 950.9 -33.33 988.84 -18.26 1023.84 5.79 1053.75 38.33 1075.19 75.34 1088.71 113.67 1091.87 151.31 1085.87 186.59 1078.57 218.9 1071.82 248.69 1071.8 276.74 1085.41 302.7 1110.51 328.71 1143.11 355.68 1176.96 382.13 1200.61 410.59 1205.46 441.31Q1205.46 441.32 1205.46 441.32" opacity="0.83"></path><path d="M1116.46 426.15C1107.17 450.72 1086.4 472.76 1059.26 492.08 1032.21 511.25 1008.22 527.47 990.27 540.65 979.47 559.02 984.62 587.36 985.29 602.99 982.15 617.94 973.11 636.12 958.68 658.02 941.08 684.29 919.39 712.73 895.15 740.93 869.44 767.22 842.73 787.51 816.18 798.54 789.34 800.86 763.3 792.13 738.73 773.65 714.15 751.7 692.19 728.56 672.69 708.28 652.88 695.08 634.89 688.03 618.01 686.41 599.65 690.95 580.88 696.7 560.6 701.01 537.15 704.64 510.9 703.05 481.83 695.69 450.44 684.59 418.32 667.88 388.16 646.89 361.91 623.32 342.99 597.22 334.22 570 334.16 541.95 344.16 513.88 361.72 486.65 379.38 459.31 395.17 433.1 404.46 408.52 402.04 383.94 391.4 362.17 376.13 343.16 351.25 315.72 348.82 270.3 377.34 248.8 404.67 231.92 435.89 213.34 468.03 192.23 499.27 167.38 528.52 139.83 555.21 110.61 579.08 80.71 601.06 52.92 621.99 30.37 641.31 13.97 661.06 7.02 681.97 10.74 702.49 21.54 724.95 39.69 749.52 61.64 774.1 80.13 799.63 93.84 825.46 101 850.9 99.46 875.86 93.16 899.13 84.89 930.04 71.5 967.5 76.79 971.49 99.53 971.56 120.93 969.48 146.57 967.74 174.6 971.44 204.05 980.21 234.04 995.53 263.51 1018.62 292.92 1045.99 321.4 1073.67 348.59 1098.42 375.62 1114.04 401.57 1116.46 426.15Q1116.46 426.15 1116.46 426.15" opacity="0.08"></path><path d="M1027.46 356.19C1021.52 374.62 1008.19 391.82 989.65 407.84 969.06 424.04 947.36 439.44 926.6 454.29 908.92 469.9 894.14 485.65 882.4 501.91 874.67 519.61 868.96 538.44 864.26 558.45 861.63 579.92 858.27 602.27 853.38 624.72 848.75 646.94 841.75 667.52 832.26 684.9 816.31 703.43 772.68 703.44 745.93 684.65 727.5 668.28 708.14 650.28 688.04 632.62 667.78 617.83 646.53 605.51 624.39 596.06 601.95 590.79 578.59 587.71 554.81 585.94 531.29 586.53 508.19 586.6 486.66 585.31 445.2 572.33 447.42 524.97 466.5 501.31 477.93 484.84 487.52 467.24 493.46 448.8 492.76 430.37 487.61 411.98 479.3 393.69 467.41 375.2 456.1 356.44 447.28 337.32 440.24 317.58 438.34 297.03 441.85 275.68 449.2 253.58 461.63 230.74 478.04 207.71 497.01 184.85 518.36 162.91 540.85 143.14 564.1 125.71 587.44 112.27 610.16 104.02 632.82 99.96 654.67 101.79 675.41 109.47 696.05 120.02 715.72 134.28 734.15 150.65 760.75 171.3 802.9 192.63 818.02 192.86 839.33 182.69 868.1 188.82 884.66 203.34 900.33 215.48 918.76 230.09 939.31 246.43 961.64 263.51 983.45 281.65 1002.45 300.21 1017.87 318.96 1026.76 337.75 1027.46 356.18Q1027.46 356.19 1027.46 356.19" opacity="0.27"></path><path d="M938.48 377.9C929.23 402.48 906.52 430.04 877.05 459.19 847.22 488.61 818.21 519.57 792.51 549.4 771.37 577.22 751.84 600.21 732.26 613.85 714.25 620.1 693.28 614.04 668.7 595.56 644.12 573.61 618.27 548.44 593.69 524.78 561.27 499.45 535.74 464.36 549.03 444.32 560.48 430.43 573.23 411.33 582.48 386.75 580.01 362.18 572.25 334.46 563.15 305.75 551.17 277.72 545.93 250.33 549.18 227.19 556.13 208.04 571.27 196.91 591.71 196.76 613.76 202.4 638.29 217.61 662.86 239.56 687.44 258.04 709.74 274.07 730.28 285.83 752.43 290.2 775.65 293.28 800.91 297.67 829.87 300.05 861.17 307.45 891.17 320.62 918.29 334.06 936.01 353.32 938.48 377.9Q938.48 377.9 938.48 377.9" opacity="0.11"></path></g></svg>