<svg xmlns="http://www.w3.org/2000/svg" version="1.1" xmlns:xlink="http://www.w3.org/1999/xlink" xmlns:svgjs="http://svgjs.dev/svgjs" viewBox="0 0 1422 800"><defs><linearGradient x1="50%" y1="0%" x2="50%" y2="100%" id="ssscribble-grad"><stop stop-color="hsl(37, 100%, 52%)" stop-opacity="1" offset="0%"></stop><stop stop-color="hsl(289, 73%, 52%)" stop-opacity="1" offset="100%"></stop></linearGradient></defs><g fill="none" stroke-width="1.5" stroke="url(#ssscribble-grad)" stroke-linecap="round"><path d="M1457.93 367.83C1429.66 390.82 1388.88 416.99 1344.71 446.23 1306.71 475.61 1281.58 508.22 1273.21 543.8 1282.94 579.15 1306.25 616.56 1336.89 654.6 1369.41 689.81 1394.97 722.35 1408.18 749.3 1407.22 768.67 1390.25 778.69 1359.68 777.79 1319.48 769.41 1274.38 753.57 1229.64 734.86 1189.43 722.41 1157.23 719.88 1134.61 733.76 1122.49 766.92 1119.27 817.3 1122.61 878.39 1148.84 970.24 1144.67 886.98 1118.91 913.75 1095.89 972.64 1069.24 1041.64 1040.25 1094.58 1009.1 1110.71 977.19 1084.37 945.43 1029.49 913 977.74 881.56 956.9 851.53 982.62 821.45 1045.46 792.98 1114.2 766.31 1152.14 739.67 1139.16 714.79 1081.78 691.8 1013.2 668.81 975.96 648.26 990.6 630.12 1046.24 612.02 1111.01 596.36 1145.56 583.08 1130.67 569.76 1073.95 558.61 1003.32 549.33 952.33 539.38 942.68 530.46 973.77 521.77 1025.25 510.92 1071.36 498.72 1086.32 484 1062.14 465.16 1006.59 442.21 938.95 414.41 881.33 381.93 849.28 344.87 848.27 304.14 871.34 262.07 907.67 220.01 939.19 180.74 953.64 147.27 946.22 121.8 915.45 106.77 868.02 102.24 810.99 108.85 754.67 125.13 706.24 177.48 645.06 130.53 647.25 64.77 645.97 4.02 635.9 -23.04 589.61 19.59 558.41 59.21 536.45 97.66 513.74 125.93 490.75 135.98 467.76 126.96 445.04 101.79 422.22 65.22 398.85 27.24 374.31 -3.57 347.59 -21.94 318.96 -22.29 286.66 -4.49 249.88 28.06 210.7 70.72 167.35 116.64 121.15 159.28 76.57 193.29 34.15 215.43 -1.88 200.62 -24.19 142.07 34.88 149.41 11.78 166.42 -32.8 192.13 -93.01 224.42 -156.48 261.71 -206.7 301.56 -231.29 341.82 -223.17 381.87 -189.49 419.6 -144.12 454.22 -109.08 486.09 -105.41 514.47 -139.1 539.77 -202.06 562.37 -270.38 582.83 -316.45 601.94 -319.77 619.42 -281.75 636.64 -222.1 654.25 -174.25 671.19 -168.23 689.22 -209.54 708.71 -278.86 728.05 -339.06 749.15 -356.02 772.14 -318.78 795.13 -250.2 819.46 -190.49 844.9 -172.96 870.19 -206.36 896.28 -268.33 922.69 -322.3 948.45 -339.15 973.81 -307.33 998.03 -242.61 1030.82 -154.1 1078.02 -193.95 1089.14 -257.47 1092.26 -266.58 1091.18 -238.61 1086.55 -182.98 1081.73 -116.32 1076.09 -58.81 1071.7 -24.09 1072.3 -17.57 1078.16 -34.53 1091.28 -63.46 1113.25 -94.43 1143.58 -113.23 1181.5 -113.5 1224.46 -94.49 1269.52 -57.74 1312.42 -9.86 1348.7 44.27 1374.54 96.75 1386.66 142.88 1385.04 181.52 1369.75 210.36 1343.96 230.82 1301.05 247.86 1268.45 264.76 1301.36 275.35 1341.05 283.13 1385.79 294.64 1426.92 310.04 1456.63 325.57 1467.98 344.84 1457.93 367.83Q1457.93 367.83 1457.93 367.83" opacity="0.66"></path><path d="M1346.75 370.74C1324.1 389.9 1291.76 405.97 1254.9 419.13 1204.3 437.86 1161.62 466.47 1176.09 480.63 1197.47 493.16 1222.27 508.43 1246.43 528.08 1267.73 552.86 1281.6 583.58 1286.14 620.54 1281.41 661.3 1266.57 705.53 1243.06 750.21 1212.81 790.21 1177.94 822.95 1141.08 844.01 1104.07 851.4 1069.24 844.1 1038.09 823.68 1000.57 783.99 957.44 757.7 948.43 804.42 946.47 856.51 945.46 912.85 944.38 960.3 944.28 986.99 942.82 986.38 939.49 958.98 932.94 894.51 907.39 863.4 888.83 934.64 875.39 992.87 860.25 1033.55 843.64 1040.73 826.9 1012.49 808.91 959.09 789.75 902.44 770.59 867.91 750.73 868.79 730.15 903.06 709.45 956.95 687.82 1006.58 665.13 1032.1 642.04 1024.42 617.59 985 591.66 927.91 565.15 871.56 537.04 833.27 507.43 822.39 477.56 839.87 446.65 875.86 415.29 916.02 384.92 948.14 355.39 959.55 327.82 946.58 303.38 911.69 282.71 862.07 266.99 808.16 282.44 737.8 324.33 773.98 310.11 754.3 288.48 730.37 259 700.51 223.66 667.4 185.46 631.3 148.18 595.37 115.99 561.07 92.22 526.91 80.06 495.51 81.25 467.01 94.48 439.24 118.79 414.05 150.63 391.13 183.7 368.5 214.1 347.64 236.75 328.48 246.7 309.33 243.51 292.32 228.28 277.64 202.7 263.24 172.3 251.66 142.1 243.3 106.56 233.62 105.53 231.47 141.61 235.34 175.84 235.24 213.71 232.73 251.58 225.21 286.4 209.95 315.63 186.4 337.77 153.5 351.74 113.13 358.16 66.62 358.22 17.95 319.19 -32.93 332.51 4.21 358.57 -59.97 379.87 -117.22 403.43 -168.83 428.36 -200.36 454.71 -203.53 481.4 -177.72 507.83 -132.19 534.73 -85.91 560.83 -55.62 585.78 -55.32 610.81 -88.22 634.53 -143.48 656.78 -201.16 679.02 -239.24 699.79 -242.08 718.94 -207.56 738.1 -150.92 755.2 -95.57 770.27 -63.52 785.33 -66.9 798.38 -101.93 809.48 -152.76 820.66 -200.2 830.05 -223.92 837.91 -215.12 846.24 -176.67 853.57 -120.41 860.42 -63.79 873.1 -14.22 908.33 -64.95 934.81 -115.98 957.27 -133.98 983.5 -130.21 1013.48 -105.25 1046.25 -63.42 1081.42 -12.48 1117.7 38.8 1153.01 84.33 1186.08 117.93 1214.75 137.95 1185.15 112.39 1182.04 188.9 1229.55 228.41 1267.15 255.69 1303.18 281.65 1332.55 305.64 1351.57 329.79 1356.7 351.59 1346.75 370.74Q1346.75 370.74 1346.75 370.74" opacity="0.20"></path><path d="M1235.75 477.2C1194.83 507.85 1136.46 542.48 1082.46 577.71 1083.47 629.99 1142.39 598.39 1092.35 649.58 1041.6 725.57 986.23 808.4 932.74 858.78 882.16 852.3 838.3 795.73 800.82 735.65 767.87 732.98 738.38 799.99 710.09 891.59 683.17 931.45 654.83 882.86 624.18 791.44 593.53 753.46 562.02 802.35 531.13 883.27 501.61 920.04 475.34 873.5 455.17 782.91 436.22 708.68 448.18 811.62 464.44 796.04 463.38 731.96 448.89 654.27 416.23 586.55 366.16 537.05 305.91 510.15 248.08 496.97 206.31 495.03 192.67 491.73 212.5 481 254.67 470.62 306.83 450.31 347.75 419.66 356.84 389.01 334.61 349.48 292.82 302.05 245.12 254.97 214.21 202.51 210.9 151.33 234.74 111.39 282.28 87.8 341.01 90.05 400.17 110.52 449.93 144.22 485.8 168.13 506.36 154.2 515.47 96.55 518.76 9.41 515.77 -73.3 534.05 47.36 560.9 13.34 581.92 -79.39 608.12 -134.52 638.77 -96.56 669.42 -5.14 703.08 49.67 739.87 21.65 777.58 -58.11 819.83 -107.68 866.65 -82.56 914.4 -0.01 965.15 84.04 1015.25 122.45 1076.66 80.74 1111.31 32.66 1077.36 109.21 1050.54 181.18 1030.49 247.23 1029.12 299.85 1054.9 341.71 1103.26 372.52 1162.78 398.75 1216.4 421.33 1244.84 446.55 1235.75 477.2Q1235.75 477.2 1235.75 477.2" opacity="0.98"></path><path d="M1124.75 309.73C1096.33 332.72 1054.82 356.39 1009.77 381.98 970.22 409.56 941.64 442.5 926.89 482.81 927.58 527.05 938.85 578.08 955.55 631.28 994.76 693.1 956.29 608.07 916.31 647.33 886.41 712.91 856.34 780.09 827.84 816.48 798.92 804.74 772.52 749.03 749.54 680.44 726.55 643.18 708.05 656.14 693.62 707.09 678.76 768.23 667.01 801.79 657.07 791.57 644.81 742.9 631.74 675.23 615.69 613.92 594.01 575.1 566.48 565.41 532.2 577.56 492.39 604.98 448.17 630.76 403.29 645.66 362.66 650.57 330.77 640.16 313.23 618.79 311.13 589.94 326.62 557.4 357.3 525.82 393.48 492.86 430.33 464.03 458.75 441.04 468.99 418.06 461.56 401.99 439.96 391.59 407.29 379.82 374.51 370.54 349.06 359.55 332.96 341.08 332.46 313.63 346.88 273.29 373.15 222.96 409.09 164.18 449.85 106.62 493.12 64.34 535.01 46.77 573.23 61.65 608.46 99.03 639.24 146.08 666.21 177.9 690.57 171.28 713.04 124.65 734.82 54.64 755.82 -5.17 777.6 -22.81 800.59 14.42 823.58 83 846.69 143.38 869.05 164.01 890.62 136.5 909.97 82.41 925.45 33.67 938.32 11.91 945.4 31.22 945.6 81.94 942.81 147.82 933.93 208.17 920.79 250 905.81 269.19 919.21 234.55 962.72 223.57 1005.02 223.1 1050.89 231.98 1092.43 247.76 1122.91 265.53 1134.99 286.74 1124.75 309.73Q1124.75 309.73 1124.75 309.73" opacity="0.07"></path><path d="M1013.75 462.44C972.83 493.1 912.71 506.8 856.33 500.44 817.62 491.99 798.69 472.04 793.27 466.29 800.75 502.34 805.37 580.75 799.98 668.37 794.45 706.09 776.39 660.86 745.74 569.44 715.09 531.46 674.74 575.2 627.16 644.42 579.43 682.47 526.98 650.93 479.32 579.89 444.56 498.28 430.98 436.46 447.22 396.95 481.13 370.7 528.83 347.42 569.75 316.77 578.84 286.12 560.68 250.99 528.93 224.13 479.5 217.51 498.88 296.31 551.63 235.32 592.8 143.62 631.5 87.46 662.15 125.44 692.8 216.86 712.5 274.52 724.46 259.27 740.39 194.11 757.09 148.21 782.5 152.34 822.66 198.26 877.11 266.05 938.04 327.61 992.26 387.1 1022.84 431.79 1013.75 462.44Q1013.75 462.44 1013.75 462.44" opacity="0.58"></path></g></svg>