<svg xmlns="http://www.w3.org/2000/svg" version="1.1" xmlns:xlink="http://www.w3.org/1999/xlink" xmlns:svgjs="http://svgjs.dev/svgjs" viewBox="0 0 800 800"><defs><linearGradient x1="50%" y1="0%" x2="50%" y2="100%" id="ssscribble-grad"><stop stop-color="hsl(37, 99%, 67%)" stop-opacity="1" offset="0%"></stop><stop stop-color="hsl(289, 73%, 52%)" stop-opacity="1" offset="100%"></stop></linearGradient></defs><g fill="none" stroke-width="1.5" stroke="url(#ssscribble-grad)" stroke-linecap="round"><path d="M588.79 425.7C566.35 466.87 601.98 510.7 600.21 516.65 582.47 525.29 552.14 538.62 517.5 560.65 480.38 593.99 444.97 629.79 415.15 655.6 385.33 665.98 363.91 651.71 349.35 620.25 332.3 582.54 316.08 543.78 294.74 510.06 262.28 483.62 220.93 460.95 178.57 438.76 145.24 419 135.55 394.89 156.79 365.07 192.47 335.24 228.6 302.53 250.92 270.6 249.85 229.17 243.68 202.78 268.33 222.2 291.79 231.79 320.49 233.98 350.31 223.6 380.13 197.79 408.27 174.08 436.48 162.6 468.23 162.43 505.35 180.72 547.65 211.17 591.14 247.78 629.3 287.38 648.97 324.8 648.52 361.75 624.48 395.87 588.8 425.69Q588.79 425.7 588.79 425.7" opacity="0.56"></path><path d="M534.8 371.39C512.19 402.5 521.3 445.29 529.19 464.6 530.69 482.39 523.4 503.83 508.99 528.53 492.67 556.7 472.17 583.2 449.8 601.59 427.43 611.17 405.31 605.6 382.88 587.97 358.52 563.85 330.9 534.29 300.08 504.12 267.33 474.96 234.71 447.47 208.92 422.42 192.76 398.6 192.68 375.41 210.8 353.04 237.21 330.67 267.24 311.24 292.84 296.3 319.23 278.83 353.32 288.92 383.62 277.59 405.99 259.21 432.75 241.77 462.29 229.99 491.86 221.69 523.26 223.97 552.2 235.49 576.15 251.83 590.89 274.07 591.38 298.4 582.17 323.89 561.21 349.02 534.8 371.39Q534.8 371.39 534.8 371.39" opacity="0.90"></path><path d="M480.86 350.81C459.57 380.63 450.32 411.61 445.76 443.69 448.35 481.32 436.4 521.74 406.58 547.54 376.76 557.92 334.71 538.41 293.02 504.64 258.5 466.04 243.57 426.24 264.86 396.42 300.54 366.6 341.54 352.4 372.25 351.91 391.58 346.59 412.65 341.92 442.48 331.54 488.76 297.62 524.95 309.48 480.86 350.81Q480.86 350.81 480.86 350.81" opacity="0.16"></path></g></svg>