<svg xmlns="http://www.w3.org/2000/svg" version="1.1" xmlns:xlink="http://www.w3.org/1999/xlink" xmlns:svgjs="http://svgjs.dev/svgjs" viewBox="0 0 800 800"><defs><linearGradient x1="50%" y1="0%" x2="50%" y2="100%" id="ssscribble-grad"><stop stop-color="hsl(37, 99%, 67%)" stop-opacity="1" offset="0%"></stop><stop stop-color="hsl(289, 73%, 52%)" stop-opacity="1" offset="100%"></stop></linearGradient></defs><g fill="none" stroke-width="1.5" stroke="url(#ssscribble-grad)" stroke-linecap="round"><path d="M722.1 411.91C684.17 433.49 651.63 451.57 631.19 466.21 632.05 486.44 690.42 511.7 714.18 519.57 719.18 526.57 712.07 534.27 694.49 544.19 669.03 558.97 637.51 577.98 603.41 601.78 567.36 630.58 532.31 662.82 499.75 696.27 467.93 728.79 438.9 756.79 412.69 776.55 386.94 787.1 363.25 785.33 341.68 770.72 320.11 747.56 301.67 717.76 286.73 685.87 259.28 622.68 255.1 608.49 252.55 616.6 241.86 621.8 223.39 623.02 195.92 619.73 160.33 614.63 119.72 604.99 79.41 591.51 45.17 576.64 23.25 558.97 18.89 539.44 31 519.49 59.17 498.46 97.1 476.88 132.66 455.31 158.87 434.21 170.83 413.48 165.88 392.33 149.04 370.74 126.43 348.23 101.13 324.32 82.42 298.43 74.2 270.28 75.82 240.32 89.79 208.13 113.44 174.65 144.12 141.45 179.15 109.51 215.15 81.35 251.83 58.38 286.37 43.07 317.82 37.5 347.94 40.15 375.27 52.64 400.16 73.57 424.47 97.13 447.36 122.56 468.94 145.72 500.13 163.4 547.87 144.95 561.1 120.38 563.67 90.89 565.81 132.24 592.46 170.13 623.14 198.59 661.2 227.95 702.31 256.84 740.74 286.15 769.85 314.18 783.13 340.25 779.5 366.3 757.66 390.34 722.1 411.91Q722.1 411.91 722.1 411.91" opacity="0.49"></path><path d="M659.41 336.93C601.56 371.45 566.6 399.32 565.5 422.9 594.53 450.26 623.67 480.41 634.46 517.68 629.64 564.46 602.22 618.48 564.04 670.21 520.13 710.84 477.47 726.64 442.95 708.31 408.43 668.52 385.33 617.01 369.42 571.08 347.77 541.66 321.33 526.35 280.9 519.2 224.87 521.32 159.12 518.49 104.79 505.93 80.59 492.94 101.56 468.91 159.41 434.39 211.5 399.87 233.43 358.14 222.45 311.31 186.92 264.04 159.29 213 154.86 165.65 168.92 127.56 204.22 106.25 247.25 110.37 295.05 131 339.31 168.52 373.83 208.31 408.35 226.64 429.85 224.83 441.88 209.51 458.67 183.07 477.23 165.66 508.42 164.12 558.09 172.09 622.33 195.81 683.16 228.27 719.44 264.52 711.5 302.42 659.41 336.93Q659.41 336.93 659.41 336.93" opacity="0.11"></path><path d="M597.02 332.52C552.08 358.41 515.4 386.85 495.76 417.5 496.61 449.74 507.54 486.37 518.61 525.92 531.82 566.08 534.43 605.28 525.58 636.58 514.18 657.77 494.32 662.05 468.44 645.76 442.55 617.22 413.08 578.86 379.61 539.64 343.6 505.65 300.59 477.57 253.44 455.66 208.44 440.75 170.05 427.23 150.23 411.83 150.89 398.17 177.08 379.03 222.02 353.14 263.62 327.25 291.93 297.07 301.82 265.86 266.95 200.87 288.09 228.28 324.98 270.75 350.87 287.05 378.2 293.26 408.17 291.05 441.27 278.73 481.4 266.99 527.51 260.76 596.42 257.03 647.53 296.19 597.02 332.52Q597.02 332.52 597.02 332.52" opacity="1.00"></path><path d="M534.42 403.82C476.57 438.34 435.04 488.48 416.37 538.19 417.18 579.88 407.58 601.64 373.06 583.32 338.54 543.53 285.65 487.15 239.6 437.68 213.02 396.36 226.57 359.01 284.42 324.49 336.51 289.98 365.73 264.82 374.83 260.9 366.84 265.14 374.08 293.53 408.6 333.32 443.11 351.64 498.37 357.86 551.61 361.41 587.75 356.95 586.51 369.3 534.42 403.82Q534.42 403.82 534.42 403.82" opacity="0.36"></path></g></svg>